<svg id="Layer_1" xmlns="http://www.w3.org/2000/svg" viewBox="0 0 529.1 74.8">
  <style>
    .st0{fill:#F5A300;} .st1{fill:#24BAC5;} .st2{fill:#8CC63E;} .st3{fill:#FFFFFF;}
  </style>
  <title>
    logo-typeface
  </title>
  <path class="st0" d="M526.8 54.8h-12.7c-8.8 0-5.4 8.4-22.3 8.4-20.6 0-19-22.9-19-22.9h56.3c0-22.1-9.2-39.8-37.2-39.8-22.5 0-37 12-37 36.7 0 21.8 11.3 37.5 37 37.5 27.2 0 34-17.5 34.9-19.9m-53.9-25.9s-.4-16.7 19-16.7 19 16.7 19 16.7h-38z"/>
  <path class="st1" d="M334.3.4c-22.9 0-37.1 11.8-37.1 37.1s14.2 37.1 37.1 37.1 37.1-11.7 37.1-37.1S357.2.4 334.3.4zm0 62.9c-15.8 0-20-13.9-20-25.7s4.2-25.7 20-25.7 20 13.9 20 25.7-4.1 25.7-20 25.7z"/>
  <path class="st2" d="M440.5 10.2C434.5 4 425.2.5 413.2.5s-21.4 3.5-27.3 9.7c-4.9 5.1-7 10.6-7 21.6v42.9h17.7V29.5c0-11 8.7-16 16.7-16s16.7 4.9 16.7 16v45.2h17.6v-43c-.1-10.9-2.1-16.4-7.1-21.5z"/>
  <path class="st3" d="M48.7 68.9v4.7H0V.5h47.8v4.7H5.2V34h37.2v4.5H5.2v30.4h43.5zM129.5 73.7V10.4l-28.8 49.3h-3.3L68.5 10.4v63.2h-5.2V.5h5.2L99 52.8 129.5.5h5.2v73.1l-5.2.1zM183.6 74.2c-4.8.1-9.6-1-13.9-3.2-4.1-2.1-7.8-4.9-10.8-8.3-3-3.5-5.4-7.5-7-11.8-1.6-4.4-2.5-9-2.5-13.7 0-4.8.9-9.5 2.6-14 1.7-4.3 4.1-8.4 7.2-11.8 3-3.4 6.7-6.2 10.9-8.2 4.2-2 8.9-3.1 13.6-3 4.8-.1 9.6 1.1 13.9 3.2 4.1 2.1 7.8 5 10.8 8.5 3 3.5 5.4 7.6 7 11.9 5 13.5 2.2 28.6-7.4 39.3-3.1 3.4-6.8 6.1-10.9 8-4.1 2-8.8 3.1-13.5 3.1zm-28.9-37.1c0 4.1.7 8.2 2.1 12.1 1.4 3.8 3.4 7.3 6 10.3 2.6 3 5.7 5.4 9.2 7.2 3.6 1.8 7.6 2.7 11.7 2.7 4.1.1 8.2-.9 11.9-2.8 3.5-1.8 6.6-4.3 9.1-7.4 2.6-3.1 4.5-6.6 5.9-10.4 2.8-7.7 2.7-16.2-.1-23.8-1.4-3.8-3.4-7.3-6-10.3-2.6-3-5.7-5.4-9.2-7.2-7.4-3.6-16.1-3.6-23.5.1-3.5 1.8-6.6 4.3-9.1 7.4-5.2 6.2-8 14-8 22.1zM222.5 66c1.9 1.3 4 2.2 6.2 2.8 2.6.7 5.3 1.1 8 1.1 4 0 7.2-.7 9.5-2.2 2.4-1.5 4.3-3.7 5.4-6.3 1.4-3.2 2.2-6.7 2.4-10.1.4-4 .6-8.6.6-13.6V.6h5.2v37.1c0 5.1-.2 10.1-.7 15.2-.3 4.1-1.4 8-3.1 11.7-1.5 3.1-4 5.8-7 7.5-3 1.8-7.1 2.7-12.3 2.7-5.6.2-11.2-1.4-15.9-4.5l1.7-4.3zM278.4 73.7V.7h5.2v73h-5.2z"/>
</svg>
